<svg width="32" height="12" viewBox="0 0 32 12" fill="none" xmlns="http://www.w3.org/2000/svg">
<path d="M3.99197 9.12784C5.73487 9.12784 6.83004 8.10511 6.91527 6.60085H5.2022C5.09567 7.29972 4.63544 7.69176 4.01328 7.69176C3.16527 7.69176 2.61555 6.98011 2.61555 5.72727C2.61555 4.49148 3.16953 3.78409 4.01328 3.78409C4.67805 3.78409 5.10419 4.22301 5.2022 4.875H6.91527C6.83856 3.36222 5.69226 2.36932 3.98345 2.36932C1.99765 2.36932 0.770382 3.74574 0.770382 5.75284C0.770382 7.7429 1.97635 9.12784 3.99197 9.12784ZM9.6929 5.21591C9.69716 4.37216 10.2128 3.87784 10.9543 3.87784C11.6915 3.87784 12.1261 4.35085 12.1219 5.15625V9H13.9372V4.83239C13.9415 3.2983 13.0381 2.36932 11.6744 2.36932C10.6815 2.36932 10.0168 2.83807 9.71846 3.60938H9.64176V0.272727H7.87756V9H9.6929V5.21591ZM15.1658 9H16.9812V5.29688C16.9812 4.49148 17.5692 3.9375 18.3704 3.9375C18.6218 3.9375 18.967 3.98011 19.1374 4.03551V2.42472C18.9755 2.38636 18.7496 2.3608 18.5664 2.3608C17.8335 2.3608 17.2326 2.78693 16.994 3.59659H16.9258V2.45455H15.1658V9ZM19.876 9H21.6913V5.29688C21.6956 4.49574 22.2751 3.94602 23.0081 3.94602C23.2553 3.94602 23.4555 4.0142 23.626 4.09943L24.1714 2.59943C23.9328 2.45455 23.626 2.3608 23.2766 2.3608C22.5393 2.3608 21.9428 2.78693 21.7041 3.59659H21.6359V2.45455H19.876V9ZM24.8205 11.4545H26.6359V7.9517H26.6913C26.9427 8.49716 27.4924 9.10653 28.5492 9.10653C30.0407 9.10653 31.204 7.92614 31.204 5.7358C31.204 3.4858 29.9896 2.36932 28.5535 2.36932C27.4583 2.36932 26.9342 3.02131 26.6913 3.55398H26.6103V2.45455H24.8205V11.4545ZM26.5975 5.72727C26.5975 4.55966 27.0918 3.81392 27.9739 3.81392C28.8731 3.81392 29.3504 4.59375 29.3504 5.72727C29.3504 6.86932 28.8646 7.66193 27.9739 7.66193C27.1004 7.66193 26.5975 6.89489 26.5975 5.72727Z" fill="#2582FF"/>
</svg>
