<svg viewBox="0 0 14 14">
     <defs>
         <path d="M25.8565555,11.0584296 C24.5008659,9.70274012 22.3038576,9.70274012 20.9481681,11.0584296 C19.5924786,12.4141192 19.5924786,14.6111275 20.9481681,15.966817 C22.3038576,17.3225065 24.5008659,17.3225065 25.8565555,15.966817 C27.212245,14.6111275 27.212245,12.4141192 25.8565555,11.0584296 M28.4839414,19.5764358 L26.2980396,17.3898398 C24.3946598,18.8128626 21.6957757,18.6781961 19.9666294,16.9483557 C18.0688029,15.0512233 18.0688029,11.9747175 19.9666294,10.076891 C21.8637618,8.1790645 24.9409618,8.1790645 26.8380941,10.076891 C28.5679345,11.8060372 28.702601,14.5049214 27.2795782,16.4083012 L29.4661742,18.5948972 C29.7368956,18.8656186 29.7368956,19.3050202 29.4661742,19.5764358 C29.1947587,19.8471572 28.755357,19.8471572 28.4839414,19.5764358 Z" id="path-1"></path>
     </defs>
     <g strokeWidth="1" fill="none" fillRule="evenodd">
         <g transform="translate(-117.000000, -30.000000)">
             <g transform="translate(99.103421, 21.427767)">
                 <mask fill="#FFF">
                     <use xlinkHref="#path-1"></use>
                 </mask>
                 <use fill="#FFF" xlinkHref="#path-1"></use>
             </g>
         </g>
     </g>
 </svg>
